#define alarm_width 13
#define alarm_height 14
static unsigned char alarm_bits[] = {
   0x07, 0x1c, 0xf3, 0x19, 0x1d, 0x17, 0x46, 0x0c, 0x02, 0x08, 0x03, 0x19,
   0x81, 0x10, 0x45, 0x14, 0x81, 0x10, 0x03, 0x18, 0x02, 0x08, 0x46, 0x0c,
   0x1c, 0x07, 0xf2, 0x09 };
