#define analog_width 10
#define analog_height 10
static unsigned char analog_bits[] = {
   0x78, 0x00, 0x84, 0x00, 0x12, 0x01, 0x11, 0x02, 0x11, 0x02, 0x71, 0x02,
   0x01, 0x02, 0x02, 0x01, 0x84, 0x00, 0x78, 0x00 };
