#define bluetooth_width 6
#define bluetooth_height 11
static unsigned char bluetooth_bits[] = {
   0x04, 0x0c, 0x14, 0x25, 0x16, 0x0c, 0x16, 0x25, 0x14, 0x0c, 0x04 };
