#define gear_width 10
#define gear_height 10
static unsigned char gear_bits[] = {
   0x30, 0x00, 0xb6, 0x01, 0xfe, 0x01, 0xfc, 0x00, 0xcf, 0x03, 0xcf, 0x03,
   0xfc, 0x00, 0xfe, 0x01, 0xb6, 0x01, 0x30, 0x00 };
