#define refresh_width 7
#define refresh_height 10
static unsigned char refresh_bits[] = {
   0x10, 0x30, 0x78, 0x7e, 0x36, 0x13, 0x03, 0x66, 0x7e, 0x18 };
