#define right_width 6
#define right_height 5
static unsigned char right_bits[] = {
   0x08, 0x18, 0x3f, 0x18, 0x08 };
