#define sound_width 7
#define sound_height 8
static unsigned char sound_bits[] = {
   0x30, 0x70, 0x10, 0x10, 0x10, 0x1e, 0x1f, 0x0e };
