#define temp_width 9
#define temp_height 11
static unsigned char temp_bits[] = {
   0xff, 0x01, 0x82, 0x00, 0x82, 0x00, 0x7c, 0x00, 0x38, 0x00, 0x10, 0x00,
   0x28, 0x00, 0x44, 0x00, 0x82, 0x00, 0xfe, 0x00, 0xff, 0x01 };
