#define tfl_width 10
#define tfl_height 10
static unsigned char tfl_bits[] = {
   0xfc, 0x00, 0xce, 0x01, 0xff, 0x03, 0x03, 0x03, 0x01, 0x02, 0x01, 0x02,
   0xff, 0x03, 0xfd, 0x02, 0xff, 0x03, 0x86, 0x01 };
