#define top10_width 10
#define top10_height 10
static unsigned char top10_bits[] = {
   0xc4, 0x00, 0xe6, 0x01, 0x27, 0x03, 0x07, 0x03, 0x36, 0x03, 0x36, 0x03,
   0x36, 0x03, 0x36, 0x03, 0xe6, 0x01, 0xc6, 0x00 };
