#define twitter_width 10
#define twitter_height 10
static unsigned char twitter_bits[] = {
   0x00, 0x00, 0xc0, 0x00, 0xe4, 0x01, 0xec, 0x03, 0xf9, 0x00, 0xff, 0x00,
   0x7e, 0x00, 0x3c, 0x00, 0x00, 0x00, 0x00, 0x00 };
