#define warning_width 9
#define warning_height 9
static unsigned char warning_bits[] = {
   0x10, 0x00, 0x28, 0x00, 0x44, 0x00, 0x54, 0x00, 0x92, 0x00, 0x82, 0x00,
   0x11, 0x01, 0x01, 0x01, 0xfe, 0x00 };
