#define weather_width 10
#define weather_height 10
static unsigned char weather_bits[] = {
   0x00, 0x00, 0xe0, 0x00, 0x10, 0x01, 0x18, 0x02, 0xe4, 0x02, 0x02, 0x01,
   0x01, 0x02, 0x01, 0x02, 0xfe, 0x01, 0x00, 0x00 };
