#define cloud_width 20
#define cloud_height 20
static unsigned char cloud_bits[] = {
   0x00, 0x00, 0x00, 0x00, 0x00, 0x00, 0x00, 0x00, 0x00, 0x00, 0x00, 0x00,
   0x80, 0x1f, 0x00, 0xc0, 0x30, 0x00, 0x78, 0xe0, 0x01, 0x3e, 0xc0, 0x07,
   0x02, 0x00, 0x04, 0x03, 0x00, 0x0c, 0x01, 0x00, 0x08, 0x01, 0x00, 0x08,
   0x02, 0x00, 0x0c, 0x26, 0x40, 0x06, 0xfc, 0xf0, 0x03, 0x80, 0x1f, 0x00,
   0x00, 0x00, 0x00, 0x00, 0x00, 0x00, 0x00, 0x00, 0x00, 0x00, 0x00, 0x00 };
