#define fog_width 20
#define fog_height 20
static unsigned char fog_bits[] = {
   0x00, 0x00, 0x00, 0x00, 0x00, 0x00, 0x00, 0x00, 0x00, 0x00, 0x00, 0x00,
   0x00, 0x1f, 0x00, 0x80, 0x61, 0x00, 0xfe, 0x47, 0x00, 0x60, 0xc0, 0x00,
   0x60, 0x80, 0x00, 0xf8, 0xff, 0x0f, 0x20, 0x80, 0x00, 0xfc, 0xff, 0x01,
   0xc0, 0x60, 0x00, 0x80, 0x31, 0x00, 0x00, 0x1f, 0x00, 0x00, 0x00, 0x00,
   0x00, 0x00, 0x00, 0x00, 0x00, 0x00, 0x00, 0x00, 0x00, 0x00, 0x00, 0x00 };
