#define moon_width 20
#define moon_height 20
static unsigned char moon_bits[] = {
   0x00, 0x00, 0x00, 0x00, 0x00, 0x00, 0x00, 0x00, 0x00, 0x00, 0x00, 0x00,
   0x00, 0x00, 0x00, 0x00, 0x01, 0x00, 0xc0, 0x01, 0x00, 0x40, 0x01, 0x00,
   0x60, 0x01, 0x00, 0x20, 0x03, 0x00, 0x20, 0x06, 0x00, 0x60, 0x7c, 0x00,
   0xc0, 0x20, 0x00, 0x80, 0x39, 0x00, 0x00, 0x0f, 0x00, 0x00, 0x00, 0x00,
   0x00, 0x00, 0x00, 0x00, 0x00, 0x00, 0x00, 0x00, 0x00, 0x00, 0x00, 0x00 };
