#define partial_cloud_width 20
#define partial_cloud_height 20
static unsigned char partial_cloud_bits[] = {
   0x00, 0x01, 0x00, 0x00, 0x01, 0x00, 0x04, 0x20, 0x00, 0x08, 0x10, 0x00,
   0xc0, 0x03, 0x00, 0x20, 0x0c, 0x00, 0x30, 0x08, 0x00, 0x12, 0x00, 0x00,
   0x93, 0xdf, 0x00, 0x70, 0x30, 0x00, 0x3c, 0xc0, 0x03, 0x04, 0x00, 0x02,
   0x03, 0x00, 0x04, 0x01, 0x00, 0x08, 0x01, 0x00, 0x08, 0x02, 0x00, 0x0c,
   0x02, 0x00, 0x04, 0x7c, 0xe0, 0x07, 0xe8, 0xf9, 0x01, 0x00, 0x07, 0x00 };
