#define rain_width 20
#define rain_height 20
static unsigned char rain_bits[] = {
   0x00, 0x0f, 0x00, 0xc0, 0x38, 0x00, 0x60, 0x60, 0x00, 0x3c, 0xc0, 0x03,
   0x02, 0x00, 0x04, 0x03, 0x00, 0x0c, 0x01, 0x00, 0x08, 0x01, 0x00, 0x08,
   0x03, 0x00, 0x0c, 0x06, 0x00, 0x06, 0x7c, 0xe0, 0x03, 0x80, 0x1f, 0x00,
   0x00, 0x00, 0x00, 0x30, 0x00, 0x00, 0x30, 0x00, 0x00, 0x30, 0x00, 0x00,
   0x00, 0xc0, 0x00, 0x00, 0xc6, 0x00, 0x00, 0x86, 0x00, 0x00, 0x06, 0x00 };
