#define sun_width 20
#define sun_height 20
static unsigned char sun_bits[] = {
   0x00, 0x00, 0x00, 0x00, 0x00, 0x00, 0x00, 0x06, 0x00, 0x00, 0x06, 0x00,
   0x10, 0x80, 0x00, 0x20, 0x40, 0x00, 0x80, 0x1f, 0x00, 0xc0, 0x30, 0x00,
   0x40, 0x20, 0x00, 0x4c, 0x20, 0x03, 0x4c, 0x20, 0x03, 0x40, 0x20, 0x00,
   0xc0, 0x30, 0x00, 0x80, 0x1f, 0x00, 0x20, 0x40, 0x00, 0x10, 0x80, 0x00,
   0x00, 0x06, 0x00, 0x00, 0x06, 0x00, 0x00, 0x00, 0x00, 0x00, 0x00, 0x00 };
