#define wind_width 20
#define wind_height 20
static unsigned char wind_bits[] = {
   0x00, 0x00, 0x00, 0x00, 0x00, 0x00, 0x00, 0x00, 0x00, 0x00, 0x00, 0x00,
   0x00, 0x00, 0x00, 0x00, 0x0e, 0x00, 0x00, 0x0e, 0x00, 0xf8, 0x0f, 0x00,
   0xf8, 0x03, 0x03, 0x00, 0x80, 0x07, 0xf8, 0xff, 0x03, 0x00, 0x00, 0x00,
   0xf8, 0x1f, 0x00, 0xf8, 0x7f, 0x00, 0x00, 0x78, 0x00, 0x00, 0x30, 0x00,
   0x00, 0x00, 0x00, 0x00, 0x00, 0x00, 0x00, 0x00, 0x00, 0x00, 0x00, 0x00 };
